<?xml version="1.0" encoding="UTF-8"?>
<svg width="64px" height="50px" viewBox="0 0 64 50" version="1.1" xmlns="http://www.w3.org/2000/svg" xmlns:xlink="http://www.w3.org/1999/xlink">
    <!-- Generator: Sketch 63.1 (92452) - https://sketch.com -->
    <title>rent</title>
    <desc>Created with Sketch.</desc>
    <g id="Page-1" stroke="none" stroke-width="1" fill="none" fill-rule="evenodd">
        <g id="rent" fill="#000000" fill-rule="nonzero">
            <g id="Group" transform="translate(0.950000, 0.850000)">
                <g>
                    <g>
                        <path d="M3.24783,46.97589 L15.06546,46.97589 C16.85601,46.97589 18.3126,45.5193 18.3126,43.72806 L18.3126,43.71012 L29.62239,47.45544 C31.31013,48.01434 33.051,48.29241 34.78566,48.29241 C37.20273,48.29241 39.61014,47.75352 41.85264,46.68402 L59.53872,38.03349 C60.63513,37.49736 61.45623,36.56655 61.85298,35.41149 C62.24835,34.25712 62.17107,33.01788 61.63425,31.92078 C60.52818,29.66241 57.78957,28.72401 55.52913,29.82525 L45.42546,34.75392 C44.92728,32.69013 43.0698,31.15074 40.85559,31.15074 L33.78654,31.15074 L31.28874,29.81904 C28.91859,28.55496 26.24622,27.88704 23.56143,27.88704 L18.3126,27.88704 L18.3126,27.80769 C18.3126,26.01714 16.85601,24.55986 15.06546,24.55986 L3.24783,24.55986 C1.45659,24.56055 0,26.01714 0,27.80769 L0,43.72806 C0,45.51861 1.45659,46.97589 3.24783,46.97589 Z M23.56143,30.64704 C25.79496,30.64704 28.01814,31.20318 29.98947,32.25474 L32.79432,33.75066 C32.81088,33.75963 32.82813,33.76239 32.84538,33.76998 C32.9061,33.79965 32.96958,33.82242 33.03513,33.84312 C33.0717,33.85485 33.10758,33.86865 33.14484,33.87693 C33.2097,33.89142 33.27663,33.89625 33.34494,33.90108 C33.37737,33.90315 33.41049,33.91281 33.44292,33.91281 C33.44775,33.91281 33.45258,33.91074 33.4581,33.91074 L40.8549,33.91074 C41.92785,33.91074 42.8007,34.78428 42.8007,35.86206 C42.8007,36.93501 41.92716,37.80855 40.8549,37.80855 L30.50421,37.80855 C29.74245,37.80855 29.12421,38.42679 29.12421,39.18855 C29.12421,39.95031 29.74245,40.56855 30.50421,40.56855 L40.8549,40.56855 C42.67305,40.56855 44.25039,39.5301 45.03354,38.01555 L56.7387,32.3058 C57.63018,31.87041 58.71693,32.24094 59.15508,33.13518 C59.3676,33.56919 59.39796,34.05978 59.24133,34.51656 C59.0847,34.97334 58.75971,35.3418 58.3257,35.55432 L40.65273,44.19864 C37.45734,45.72147 33.84864,45.94641 30.48972,44.83551 L18.3126,40.80246 L18.3126,30.64704 L23.56143,30.64704 Z M2.76,27.80769 C2.76,27.53859 2.97873,27.31986 3.24783,27.31986 L15.06546,27.31986 C15.33456,27.31986 15.5526,27.53859 15.5526,27.80769 L15.5526,43.72806 C15.5526,43.99716 15.33456,44.21589 15.06546,44.21589 L3.24783,44.21589 C2.97873,44.21589 2.76,43.99716 2.76,43.72806 L2.76,27.80769 Z" id="Shape"></path>
                        <path d="M49.59375,1.64358 L45.6918,1.64358 C44.93004,1.64358 44.3118,2.26182 44.3118,3.02358 L44.3118,4.73754 L39.22443,0.34776 C38.70555,-0.09936 37.93896,-0.09867 37.42146,0.34776 L21.71223,13.90419 C21.13539,14.40237 21.07122,15.27315 21.5694,15.85068 C21.84264,16.1667 22.22697,16.32885 22.61475,16.32885 C22.93422,16.32885 23.25507,16.21845 23.51589,15.99351 L24.3639,15.26142 L24.3639,25.39614 C24.3639,26.1579 24.98214,26.77614 25.7439,26.77614 C26.50566,26.77614 27.1239,26.1579 27.1239,25.39614 L27.1239,12.87954 L38.3226,3.2154 L49.52682,12.8823 L49.52682,29.03175 C49.52682,29.79351 50.14506,30.41175 50.90682,30.41175 C51.66858,30.41175 52.28682,29.79351 52.28682,29.03175 L52.28682,15.26418 L53.13276,15.99351 C53.71029,16.491 54.58107,16.42683 55.07856,15.84999 C55.57605,15.27315 55.51257,14.40168 54.93573,13.9035 L50.97375,10.48524 L50.97375,3.02358 C50.97375,2.26182 50.35551,1.64358 49.59375,1.64358 Z M47.0718,4.40358 L48.21375,4.40358 L48.21375,8.10267 L47.0718,7.11735 L47.0718,4.40358 Z" id="Shape"></path>
                        <path d="M38.32398,27.7104 C39.08574,27.7104 39.70398,27.09216 39.70398,26.3304 L39.70398,25.34577 C41.51454,24.82827 42.8283,23.322 42.8283,21.54801 C42.8283,19.3476 40.80729,17.55636 38.32398,17.55636 C37.37868,17.55636 36.57966,16.99263 36.57966,16.32471 C36.57966,15.65679 37.37868,15.09306 38.32398,15.09306 C39.26859,15.09306 39.91443,15.62022 40.04139,16.11633 C40.23114,16.85394 40.9791,17.29968 41.72223,17.10924 C42.45984,16.91949 42.90489,16.16739 42.71514,15.42909 C42.35289,14.02011 41.18886,12.94785 39.70398,12.52902 L39.70398,11.54094 C39.70398,10.77918 39.08574,10.16094 38.32398,10.16094 C37.56222,10.16094 36.94398,10.77918 36.94398,11.54094 L36.94398,12.52557 C35.13342,13.04307 33.81966,14.54934 33.81966,16.32333 C33.81966,18.52374 35.84067,20.31498 38.32398,20.31498 C39.26928,20.31498 40.0683,20.87871 40.0683,21.54663 C40.0683,22.21455 39.26928,22.77828 38.32398,22.77828 C37.44768,22.77828 36.81219,22.31046 36.63624,21.84885 C36.36507,21.13608 35.56674,20.78142 34.85535,21.05052 C34.14327,21.32169 33.78585,22.11933 34.05702,22.83141 C34.52139,24.05064 35.60883,24.96765 36.94467,25.34715 L36.94467,26.3304 C36.94398,27.09216 37.56222,27.7104 38.32398,27.7104 Z" id="Path"></path>
                    </g>
                </g>
            </g>
        </g>
    </g>
</svg>